<svg width="32" height="32" viewBox="0 0 32 32" fill="none" xmlns="http://www.w3.org/2000/svg">
<path d="M4 8.66663L16 14M28 8.66663L16 14M16 28.6666V14" stroke="white" stroke-width="2" stroke-linejoin="round"/>
<path d="M4 22.9434V9.05663C4 8.81952 4.13964 8.60464 4.35632 8.50834L15.7563 3.44168C15.9115 3.37273 16.0885 3.37273 16.2437 3.44168L27.6437 8.50834C27.8604 8.60464 28 8.81952 28 9.05663V22.9434C28 23.1806 27.8604 23.3954 27.6437 23.4917L16.2437 28.5584C16.0885 28.6274 15.9115 28.6274 15.7563 28.5584L4.35632 23.4917C4.13964 23.3954 4 23.1806 4 22.9434Z" stroke="white" stroke-width="2" stroke-linecap="round" stroke-linejoin="round"/>
<path d="M10 6L21.6437 11.175C21.8604 11.2713 22 11.4861 22 11.7233V16.6667" stroke="white" stroke-width="2" stroke-linecap="round" stroke-linejoin="round"/>
</svg>
