<svg width="73" height="18" viewBox="0 0 73 18" fill="none" xmlns="http://www.w3.org/2000/svg">
<path d="M18.3971 7.20914C18.2789 7.2152 18.1425 7.19018 17.9879 7.1341C17.8416 7.07877 17.7469 6.96509 17.7037 6.79306C17.6863 6.70742 17.6893 6.62785 17.7128 6.55435C17.7371 6.4725 17.8299 6.42211 17.9913 6.40318C18.1444 6.38348 18.3055 6.36872 18.4745 6.35888C18.6525 6.34146 18.8303 6.3282 19.0076 6.31912L18.6723 4.87659C18.5792 4.3302 18.6042 3.8702 18.7474 3.49661C18.8907 3.12301 19.2241 2.87598 19.7478 2.75552C19.9623 2.70779 20.1688 2.70136 20.3673 2.73623C20.5742 2.77186 20.7652 2.84387 20.9402 2.95225C21.1153 3.06063 21.271 3.19666 21.4074 3.36036C21.5438 3.52406 21.6487 3.71011 21.7222 3.91851C21.7472 4.01324 21.7563 4.09812 21.7495 4.17314C21.7518 4.24059 21.7211 4.30083 21.6574 4.35388C21.5665 4.42965 21.4714 4.45882 21.3721 4.44139C21.2736 4.41562 21.2095 4.38037 21.18 4.33566C21.1133 4.23714 21.0383 4.13786 20.9549 4.03782C20.8807 3.93021 20.7966 3.83851 20.7026 3.76272C20.6177 3.67936 20.5226 3.61607 20.4173 3.57287C20.3127 3.52133 20.1971 3.49821 20.0706 3.50351C20.0115 3.50654 19.938 3.52927 19.8501 3.5717C19.7705 3.61489 19.6966 3.68802 19.6284 3.79107C19.5609 3.8858 19.5113 4.01576 19.4795 4.18096C19.456 4.34692 19.4662 4.55798 19.5101 4.81412C19.5495 5.02783 19.5957 5.25897 19.6487 5.50754C19.7018 5.7561 19.762 6.01793 19.8294 6.29303C20.2334 6.28775 20.6013 6.30861 20.9332 6.35561C21.1151 6.38897 21.2829 6.43786 21.4368 6.50228C21.5906 6.56671 21.713 6.65348 21.8039 6.76261C21.8213 6.84825 21.8107 6.91873 21.7721 6.97404C21.7342 7.02103 21.68 7.06232 21.6095 7.09794C21.5481 7.12597 21.475 7.14454 21.3901 7.15362C21.3136 7.16347 21.2374 7.16915 21.1616 7.17066C20.9934 7.17217 20.8164 7.17708 20.6308 7.18541C20.4459 7.1854 20.2526 7.18463 20.051 7.1831C20.1503 7.57035 20.2386 7.93979 20.3158 8.29142C20.4022 8.63548 20.4685 8.92308 20.5147 9.15421C20.5367 9.28229 20.5287 9.41604 20.4908 9.55548C20.4529 9.69491 20.4071 9.82942 20.3533 9.95901C20.2691 10.1447 20.1717 10.2913 20.0611 10.3989C19.9504 10.5065 19.8387 10.5342 19.7257 10.4819C19.6378 10.4318 19.5844 10.3724 19.5655 10.3034C19.5465 10.2344 19.5507 10.1424 19.578 10.0272C19.6068 9.89531 19.6273 9.76269 19.6394 9.62931C19.6515 9.49594 19.6542 9.37431 19.6474 9.26442C19.6497 9.14696 19.6421 9.04541 19.6247 8.95978C19.6163 8.86657 19.6095 8.80291 19.6042 8.76881L19.2178 7.19555C19.0829 7.20009 18.948 7.20463 18.8131 7.20917C18.679 7.20537 18.5403 7.20536 18.3971 7.20914ZM26.5237 5.89341C26.3661 5.96312 26.1997 6.03624 26.0247 6.11277C25.8579 6.19005 25.6855 6.28363 25.5074 6.39351C25.3384 6.4958 25.1713 6.62348 25.0061 6.77655C24.85 6.92205 24.7033 7.10202 24.5662 7.31647C24.3706 7.61807 24.2285 7.93294 24.1398 8.26107C24.0519 8.58086 23.9852 8.89839 23.9397 9.21364C23.9261 9.36368 23.8745 9.51449 23.7851 9.66604C23.7047 9.81003 23.6021 9.87633 23.477 9.86495C23.3186 9.85055 23.1966 9.7596 23.111 9.59212C23.0345 9.41706 22.9864 9.25299 22.9667 9.0999C22.8788 8.49516 22.8152 7.90103 22.7758 7.3175C22.7372 6.72564 22.7107 6.13909 22.6963 5.55784C22.707 5.44114 22.7471 5.36915 22.8169 5.34187C22.8949 5.31535 22.9794 5.31043 23.0703 5.32711C23.1696 5.34454 23.2632 5.37827 23.3511 5.42829C23.439 5.47832 23.4871 5.54993 23.4955 5.64314C23.5007 5.95461 23.5129 6.2835 23.5318 6.62983C23.5515 6.96782 23.5753 7.25996 23.6033 7.50625C23.6625 7.22586 23.7792 6.95911 23.9535 6.70601C24.1278 6.45291 24.3332 6.22785 24.5696 6.03083C24.8144 5.83457 25.0812 5.67393 25.3699 5.54891C25.667 5.42464 25.9637 5.35077 26.26 5.3273C26.3866 5.322 26.4908 5.33148 26.5726 5.35574C26.6544 5.37999 26.7101 5.41448 26.7397 5.45919C26.7693 5.5039 26.7674 5.57097 26.734 5.66039C26.709 5.75057 26.6389 5.82824 26.5237 5.89341ZM30.1795 7.61279C29.8369 7.77494 29.4731 7.89314 29.0882 7.96738C28.704 8.03329 28.2951 8.04653 27.8616 8.00709C27.8518 8.30037 27.9139 8.54136 28.048 8.73006C28.1829 8.91043 28.3614 9.02753 28.5834 9.08134C28.7153 9.11015 28.849 9.11811 28.9847 9.10524C29.1286 9.09312 29.2613 9.06737 29.3825 9.02797C29.5129 8.98099 29.6311 8.92871 29.7372 8.87112C29.8433 8.81353 29.9369 8.75481 30.018 8.69494C30.0991 8.63508 30.182 8.6006 30.2669 8.59152C30.3526 8.57409 30.4155 8.57561 30.4556 8.59607C30.5685 8.64837 30.5988 8.7772 30.5465 8.98257C30.3889 9.23718 30.1763 9.44898 29.9088 9.61796C29.642 9.7786 29.3522 9.8699 29.0392 9.89186C28.7679 9.91761 28.4939 9.88008 28.2173 9.77927C27.9407 9.67847 27.6998 9.50946 27.4944 9.27225C27.3201 9.06308 27.1947 8.82474 27.1182 8.55722C27.0417 8.28971 27.0034 8.01727 27.0034 7.73991C27.0019 7.47922 27.0451 7.2352 27.1331 7.00786C27.2293 6.78128 27.3604 6.58729 27.5264 6.42588C27.6931 6.25614 27.8943 6.12316 28.13 6.02693C28.3657 5.9307 28.6344 5.8879 28.936 5.89853C29.2967 5.90613 29.6157 6.00239 29.8931 6.18731C30.1704 6.37224 30.3546 6.61172 30.4455 6.90576C30.4978 7.07021 30.5019 7.20927 30.458 7.32294C30.4223 7.43737 30.3295 7.53398 30.1795 7.61279ZM28.8188 6.63171C28.734 6.6408 28.6396 6.66163 28.5358 6.69421C28.4403 6.72755 28.3479 6.77377 28.2584 6.83288C28.1781 6.8844 28.1008 6.94881 28.0265 7.02611C27.9613 7.09582 27.92 7.18032 27.9026 7.27959C28.0443 7.29248 28.1997 7.294 28.3687 7.28416C28.546 7.27508 28.7154 7.26107 28.8768 7.24213C29.0473 7.21562 29.2015 7.18342 29.3394 7.14554C29.4857 7.10842 29.6073 7.06485 29.7043 7.01484C29.6521 6.85039 29.5357 6.74315 29.3554 6.69312C29.1841 6.63552 29.0053 6.61505 28.8188 6.63171ZM34.5632 8.01157C34.2206 8.17372 33.8569 8.29192 33.4719 8.36617C33.0877 8.43207 32.6788 8.44531 32.2453 8.40588C32.2355 8.69915 32.2976 8.94014 32.4317 9.12885C32.5666 9.30922 32.7451 9.42631 32.9671 9.48013C33.099 9.50893 33.2327 9.5169 33.3684 9.50402C33.5124 9.49191 33.645 9.46615 33.7662 9.42675C33.8966 9.37977 34.0148 9.32749 34.1209 9.2699C34.227 9.21232 34.3206 9.15359 34.4017 9.09373C34.4828 9.03386 34.5658 8.99939 34.6506 8.9903C34.7363 8.97288 34.7992 8.97439 34.8393 8.99486C34.9522 9.04715 34.9825 9.17599 34.9302 9.38135C34.7726 9.63597 34.56 9.84777 34.2925 10.0167C34.0257 10.1774 33.7359 10.2687 33.4229 10.2906C33.1516 10.3164 32.8776 10.2789 32.601 10.1781C32.3244 10.0773 32.0835 9.90824 31.8781 9.67103C31.7038 9.46187 31.5784 9.22352 31.5019 8.95601C31.4254 8.68849 31.3871 8.41606 31.3871 8.13869C31.3856 7.878 31.4288 7.63399 31.5168 7.40665C31.613 7.18007 31.7441 6.98607 31.9101 6.82467C32.0768 6.65493 32.278 6.52194 32.5137 6.42571C32.7494 6.32948 33.0181 6.28668 33.3197 6.29731C33.6804 6.30491 33.9994 6.40117 34.2768 6.5861C34.5541 6.77102 34.7383 7.0105 34.8292 7.30454C34.8815 7.46899 34.8856 7.60805 34.8417 7.72172C34.8061 7.83615 34.7132 7.93277 34.5632 8.01157ZM33.2026 7.03049C33.1177 7.03958 33.0233 7.06042 32.9195 7.093C32.824 7.12633 32.7316 7.17256 32.6421 7.23166C32.5618 7.28319 32.4845 7.3476 32.4102 7.42489C32.3451 7.49461 32.3037 7.5791 32.2863 7.67837C32.428 7.69126 32.5834 7.69279 32.7524 7.68295C32.9297 7.67386 33.0991 7.65986 33.2605 7.64092C33.431 7.61441 33.5852 7.58221 33.7231 7.54433C33.8694 7.5072 33.991 7.46363 34.088 7.41362C34.0358 7.24917 33.9194 7.14194 33.7391 7.09191C33.5678 7.0343 33.389 7.01383 33.2026 7.03049ZM41.1598 12.9486C41.1431 13.0396 41.0939 13.1191 41.012 13.1873C40.9294 13.2639 40.8426 13.2938 40.7517 13.2771C40.6108 13.2559 40.5073 13.1918 40.4414 13.085C40.3755 12.9781 40.3455 12.8914 40.3516 12.8247C40.3804 12.5079 40.402 12.1779 40.4165 11.8346C40.4316 11.483 40.4434 11.1226 40.4518 10.7536C40.3419 10.7604 40.2426 10.7429 40.1539 10.7012C40.0744 10.652 40.0217 10.5842 39.996 10.4978C39.9505 10.3507 39.9702 10.2265 40.0551 10.1249C40.14 10.0234 40.2703 9.93017 40.4461 9.84531C40.4325 9.53309 40.4185 9.22503 40.4041 8.92115C40.3981 8.61802 40.3871 8.32285 40.3712 8.03563C40.3674 7.98486 40.3758 7.93939 40.3962 7.89923C40.4167 7.85906 40.441 7.82345 40.469 7.79238C40.4978 7.75297 40.5471 7.71963 40.6168 7.69235C40.7289 7.66053 40.8468 7.70487 40.9703 7.82537C41.1021 7.94663 41.1855 8.0929 41.2203 8.26417C41.2309 8.42482 41.2393 8.61049 41.2453 8.82116C41.2605 9.02426 41.2695 9.24782 41.2726 9.49184C41.4575 9.39939 41.6306 9.29748 41.7921 9.18609C41.9618 9.07546 42.1073 8.95421 42.2286 8.82236C42.3582 8.69127 42.459 8.55335 42.531 8.40861C42.6037 8.25553 42.6352 8.0945 42.6254 7.92551C42.6216 7.78228 42.5704 7.65155 42.4719 7.53332C42.3742 7.40676 42.209 7.3287 41.9763 7.29913C41.7687 7.27183 41.5588 7.26955 41.3466 7.29227C41.1427 7.31575 40.9377 7.35173 40.7316 7.40022C40.5338 7.44947 40.3349 7.51122 40.1348 7.58547C39.9431 7.66049 39.7555 7.73588 39.5721 7.81165C39.4493 7.86772 39.33 7.88628 39.214 7.86733C39.1072 7.8408 39.0401 7.79267 39.0128 7.72295C38.953 7.54941 38.9708 7.39974 39.0663 7.27395C39.1701 7.14891 39.319 7.03638 39.5131 6.93636C39.6798 6.85908 39.8757 6.78444 40.1008 6.71246C40.3349 6.63291 40.5759 6.57078 40.8237 6.52608C41.0806 6.47381 41.3353 6.44654 41.5876 6.44429C41.8491 6.43445 42.0946 6.46099 42.3242 6.5239C42.5546 6.57848 42.7558 6.67663 42.9278 6.81835C43.1089 6.95249 43.2472 7.14158 43.3427 7.3856C43.4495 7.78195 43.4548 8.13964 43.3585 8.45867C43.2713 8.77013 43.1198 9.05052 42.9038 9.29983C42.6969 9.54156 42.446 9.75828 42.1512 9.94999C41.8655 10.1341 41.5775 10.297 41.2873 10.4387C41.288 10.8927 41.2766 11.3413 41.2531 11.7846C41.2296 12.2279 41.1985 12.6159 41.1598 12.9486ZM48.0637 7.85289C47.9061 7.9226 47.7397 7.99572 47.5647 8.07225C47.3979 8.14954 47.2255 8.24312 47.0474 8.35299C46.8784 8.45529 46.7113 8.58297 46.5461 8.73604C46.39 8.88153 46.2433 9.06151 46.1062 9.27596C45.9106 9.57756 45.7685 9.89243 45.6798 10.2206C45.5919 10.5404 45.5252 10.8579 45.4797 11.1731C45.4661 11.3232 45.4145 11.474 45.3251 11.6255C45.2448 11.7695 45.1421 11.8358 45.017 11.8244C44.8586 11.81 44.7366 11.7191 44.651 11.5516C44.5745 11.3765 44.5264 11.2125 44.5067 11.0594C44.4188 10.4546 44.3552 9.86051 44.3158 9.27699C44.2772 8.68513 44.2507 8.09858 44.2364 7.51733C44.247 7.40063 44.2871 7.32864 44.3569 7.30136C44.4349 7.27484 44.5194 7.26992 44.6103 7.2866C44.7096 7.30403 44.8032 7.33776 44.8911 7.38778C44.979 7.4378 45.0271 7.50942 45.0355 7.60263C45.0408 7.9141 45.0529 8.24299 45.0718 8.58932C45.0915 8.9273 45.1153 9.21944 45.1433 9.46574C45.2025 9.18535 45.3192 8.9186 45.4935 8.6655C45.6678 8.4124 45.8732 8.18734 46.1097 7.99032C46.3544 7.79406 46.6212 7.63342 46.9099 7.5084C47.207 7.38413 47.5037 7.31026 47.8 7.28679C47.9266 7.28149 48.0308 7.29097 48.1126 7.31523C48.1945 7.33948 48.2501 7.37396 48.2797 7.41868C48.3093 7.46339 48.3074 7.53046 48.274 7.61988C48.249 7.71006 48.1789 7.78773 48.0637 7.85289ZM51.7195 9.57227C51.3769 9.73443 51.0131 9.85263 50.6282 9.92687C50.244 9.99278 49.8351 10.006 49.4016 9.96658C49.3918 10.2599 49.4539 10.5008 49.588 10.6896C49.7229 10.8699 49.9014 10.987 50.1234 11.0408C50.2553 11.0696 50.389 11.0776 50.5247 11.0647C50.6686 11.0526 50.8013 11.0269 50.9225 10.9875C51.0529 10.9405 51.1711 10.8882 51.2772 10.8306C51.3833 10.773 51.4769 10.7143 51.558 10.6544C51.6391 10.5946 51.722 10.5601 51.8069 10.551C51.8926 10.5336 51.9555 10.5351 51.9956 10.5556C52.1085 10.6079 52.1388 10.7367 52.0865 10.9421C51.9289 11.1967 51.7163 11.4085 51.4488 11.5774C51.182 11.7381 50.8922 11.8294 50.5792 11.8513C50.3079 11.8771 50.0339 11.8396 49.7573 11.7388C49.4807 11.638 49.2398 11.4689 49.0344 11.2317C48.8601 11.0226 48.7347 10.7842 48.6582 10.5167C48.5817 10.2492 48.5434 9.97676 48.5434 9.6994C48.5419 9.43871 48.5851 9.19469 48.6731 8.96735C48.7693 8.74077 48.9004 8.54678 49.0664 8.38537C49.2331 8.21563 49.4343 8.08264 49.67 7.98642C49.9057 7.89019 50.1744 7.84739 50.476 7.85801C50.8367 7.86561 51.1557 7.96188 51.4331 8.1468C51.7104 8.33172 51.8946 8.57121 51.9855 8.86525C52.0378 9.0297 52.0419 9.16876 51.998 9.28243C51.9623 9.39685 51.8695 9.49347 51.7195 9.57227ZM50.3588 8.5912C50.274 8.60028 50.1796 8.62112 50.0758 8.6537C49.9803 8.68704 49.8879 8.73326 49.7984 8.79236C49.7181 8.84389 49.6408 8.9083 49.5665 8.98559C49.5013 9.05531 49.46 9.1398 49.4426 9.23908C49.5843 9.25197 49.7397 9.25349 49.9087 9.24365C50.086 9.23457 50.2554 9.22056 50.4168 9.20162C50.5873 9.17511 50.7415 9.14291 50.8794 9.10503C51.0257 9.0679 51.1473 9.02434 51.2443 8.97433C51.1921 8.80988 51.0757 8.70264 50.8954 8.65261C50.7241 8.59501 50.5453 8.57454 50.3588 8.5912ZM57.4366 8.47861C57.2828 8.69155 57.1293 8.90032 56.9762 9.10492C56.8231 9.30953 56.6545 9.54634 56.4703 9.81535C56.2953 10.0768 56.091 10.3818 55.8576 10.7304C55.6242 11.079 55.3502 11.5037 55.0357 12.0046C54.9576 12.1236 54.8818 12.2175 54.8083 12.2865C54.7348 12.3555 54.6522 12.3858 54.5605 12.3774C54.4354 12.366 54.3384 12.3236 54.2695 12.2501C54.2096 12.169 54.1585 12.0845 54.116 11.9966C53.8827 11.5131 53.658 10.9799 53.4421 10.3972C53.2261 9.8144 53.059 9.24867 52.9409 8.70001C52.928 8.65681 52.9322 8.61096 52.9534 8.56246C52.9837 8.50639 53.0204 8.47191 53.0636 8.45903C53.1508 8.42493 53.2595 8.43062 53.3899 8.4761C53.4861 8.52688 53.5793 8.611 53.6695 8.72847C53.7597 8.84594 53.8286 8.96568 53.8764 9.08769C53.9158 9.20894 53.962 9.34762 54.015 9.50374C54.0681 9.65985 54.1241 9.82885 54.1832 10.0107C54.2514 10.185 54.3196 10.3593 54.3878 10.5336C54.456 10.7079 54.5257 10.8656 54.5969 11.0065C54.7614 10.7693 54.9357 10.5162 55.1199 10.2472C55.3131 9.97063 55.5064 9.69404 55.6997 9.41745C55.8937 9.13252 56.0866 8.8601 56.2783 8.60018C56.4784 8.34101 56.6716 8.11065 56.8581 7.90908C56.9051 7.85452 56.9664 7.82648 57.0422 7.82497C57.118 7.82346 57.1987 7.86022 57.2843 7.93525C57.4783 8.11259 57.5291 8.29371 57.4366 8.47861ZM60.43 8.18358C60.4057 8.26543 60.3432 8.30597 60.2424 8.3052C60.1416 8.30444 60.0579 8.30102 59.9912 8.29496C59.782 8.28433 59.5634 8.28546 59.3353 8.29833C59.1155 8.31195 58.8817 8.34112 58.6339 8.38581C58.5309 8.41006 58.4236 8.38769 58.3122 8.31873C58.2008 8.24976 58.1406 8.12661 58.1315 7.94928C58.1376 7.88259 58.1675 7.83068 58.2213 7.79355C58.2751 7.75642 58.3369 7.72422 58.4066 7.69694C58.5195 7.65678 58.6525 7.62686 58.8056 7.60716C58.9594 7.57913 59.1121 7.56361 59.2637 7.56059C59.4236 7.55832 59.574 7.5678 59.715 7.58903C59.8567 7.60192 59.9723 7.62504 60.0617 7.65839C60.1913 7.71221 60.2898 7.7842 60.3572 7.87439C60.433 7.96533 60.4572 8.0684 60.43 8.18358ZM59.7636 12.3212C59.8098 12.4599 59.8257 12.6085 59.8113 12.7668C59.806 12.9176 59.7548 13.018 59.6578 13.0681C59.5343 13.1325 59.4096 13.1169 59.2838 13.0214C59.1581 12.9259 59.0683 12.8043 59.0145 12.6565C58.9387 12.4731 58.8872 12.2541 58.8599 11.9995C58.8334 11.7365 58.819 11.4789 58.8168 11.2265C58.8145 10.9742 58.8191 10.7392 58.8304 10.5217C58.8502 10.305 58.8649 10.1425 58.8748 10.0341C58.8938 9.91814 58.937 9.8128 59.0044 9.71808C59.0719 9.62336 59.1522 9.57183 59.2454 9.5635C59.3947 9.58549 59.5091 9.66734 59.5887 9.80905C59.669 9.94244 59.6963 10.1046 59.6705 10.2956C59.6568 10.4456 59.6458 10.6127 59.6375 10.7969C59.6292 10.981 59.6291 11.1659 59.6375 11.3516C59.6458 11.5373 59.6587 11.7191 59.6761 11.8972C59.6943 12.067 59.7234 12.2083 59.7636 12.3212ZM64.1868 10.7064C63.8442 10.8686 63.4805 10.9868 63.0955 11.061C62.7113 11.1269 62.3024 11.1402 61.869 11.1007C61.8591 11.394 61.9212 11.635 62.0553 11.8237C62.1902 12.0041 62.3687 12.1212 62.5907 12.175C62.7226 12.2038 62.8563 12.2118 62.992 12.1989C63.136 12.1868 63.2686 12.161 63.3898 12.1216C63.5202 12.0746 63.6384 12.0223 63.7445 11.9648C63.8506 11.9072 63.9442 11.8484 64.0253 11.7886C64.1064 11.7287 64.1894 11.6942 64.2742 11.6852C64.3599 11.6677 64.4228 11.6692 64.4629 11.6897C64.5758 11.742 64.6062 11.8708 64.5538 12.0762C64.3962 12.3308 64.1836 12.5426 63.9161 12.7116C63.6493 12.8722 63.3595 12.9635 63.0465 12.9855C62.7752 13.0112 62.5012 12.9737 62.2246 12.8729C61.948 12.7721 61.7071 12.6031 61.5017 12.3659C61.3274 12.1567 61.202 11.9184 61.1255 11.6509C61.049 11.3833 61.0107 11.1109 61.0107 10.8335C61.0092 10.5729 61.0525 10.3288 61.1404 10.1015C61.2366 9.87492 61.3677 9.68092 61.5337 9.51952C61.7004 9.34978 61.9017 9.21679 62.1373 9.12056C62.373 9.02433 62.6417 8.98153 62.9433 8.99216C63.304 8.99976 63.623 9.09602 63.9004 9.28095C64.1777 9.46587 64.3619 9.70535 64.4528 9.99939C64.5051 10.1638 64.5092 10.3029 64.4653 10.4166C64.4297 10.531 64.3368 10.6276 64.1868 10.7064ZM62.8262 9.72534C62.7413 9.73443 62.6469 9.75527 62.5431 9.78785C62.4476 9.82119 62.3552 9.86741 62.2657 9.92651C62.1854 9.97804 62.1081 10.0424 62.0338 10.1197C61.9687 10.1895 61.9274 10.274 61.9099 10.3732C62.0516 10.3861 62.207 10.3876 62.376 10.3778C62.5533 10.3687 62.7227 10.3547 62.8841 10.3358C63.0546 10.3093 63.2088 10.2771 63.3468 10.2392C63.493 10.2021 63.6146 10.1585 63.7117 10.1085C63.6594 9.94403 63.5431 9.83679 63.3627 9.78676C63.1914 9.72916 63.0126 9.70868 62.8262 9.72534ZM69.7548 13.8857C69.6797 13.9713 69.599 14.027 69.5126 14.0528C69.427 14.0702 69.3508 14.0759 69.2842 14.0698C69.1682 14.0509 69.0633 14.0035 68.9693 13.9277C68.8761 13.8436 68.8204 13.7629 68.8022 13.6856C68.7651 13.5393 68.7253 13.376 68.6829 13.1957C68.6405 13.0153 68.598 12.8349 68.5556 12.6546C68.5223 12.4666 68.484 12.2866 68.4408 12.1146C68.3984 11.9343 68.3586 11.7709 68.3215 11.6247C68.1282 11.9013 67.9429 12.1828 67.7656 12.4692C67.589 12.7473 67.3946 13.0364 67.1824 13.3365C67.0877 13.454 66.9838 13.5328 66.8709 13.5729C66.7588 13.6048 66.6655 13.6131 66.5913 13.5979C66.4837 13.5797 66.3874 13.529 66.3026 13.4456C66.226 13.363 66.1658 13.2861 66.1218 13.2148C66.0438 13.0564 65.9695 12.8564 65.8991 12.6146C65.8294 12.3645 65.7646 12.1065 65.7047 11.8405C65.654 11.5669 65.607 11.2979 65.5638 11.0334C65.5214 10.7606 65.4888 10.5181 65.4661 10.3059C65.454 10.1619 65.4661 10.0285 65.5025 9.90577C65.5472 9.78377 65.6287 9.71974 65.7469 9.71368C65.8894 9.71824 66.0141 9.78001 66.1209 9.89899C66.2285 10.0096 66.2861 10.1157 66.2937 10.2173C66.3118 10.387 66.3327 10.5738 66.3561 10.7777C66.3887 10.974 66.4209 11.1744 66.4527 11.379C66.4929 11.5844 66.5292 11.7852 66.5618 11.9815C66.6027 12.1785 66.6455 12.3547 66.6902 12.5101C66.8335 12.3214 66.9919 12.1047 67.1654 11.8599C67.3481 11.6076 67.5213 11.367 67.685 11.1381C67.8494 10.9009 67.9983 10.696 68.1317 10.5232C68.2651 10.3504 68.3671 10.2462 68.4375 10.2106C68.4906 10.1818 68.5611 10.1924 68.649 10.2424C68.7376 10.2841 68.7998 10.3402 68.8354 10.4107C68.9854 10.7941 69.0987 11.2121 69.1752 11.6645C69.2608 12.1094 69.3449 12.5246 69.4275 12.9104C69.5578 12.771 69.7007 12.5864 69.856 12.3568C70.0122 12.1189 70.1653 11.868 70.3153 11.6043C70.4654 11.3406 70.6071 11.0762 70.7405 10.8109C70.8739 10.5457 70.9838 10.3077 71.0702 10.0971C71.1574 9.87807 71.2589 9.77805 71.3749 9.797C71.5234 9.82732 71.648 9.88909 71.7488 9.98231C71.8496 10.0755 71.8833 10.1668 71.85 10.2563C71.5999 10.9732 71.3009 11.6268 70.953 12.2171C70.6059 12.7991 70.2065 13.3553 69.7548 13.8857Z" fill="#1054F3"/>
<path d="M15.7686 6.75801C15.7215 6.41199 15.6246 5.28429 15.3879 4.91127C15.1049 4.46523 14.5708 4.51662 14.1358 4.55891C13.9132 4.58055 12.0123 4.95214 11.8517 4.98363C11.1783 5.11576 10.4718 5.2645 9.79422 5.38633C9.41579 5.45437 9.00608 5.51921 8.62074 5.56565C8.54496 5.57479 8.46885 5.58153 8.39266 5.5861C8.36386 5.58783 8.32697 5.60448 8.30614 5.58453C8.21263 5.495 8.76577 4.53112 8.77805 4.50858C9.14041 3.84307 9.57194 3.23629 10.0522 2.6524C10.1058 2.58724 10.2673 2.46578 10.1875 2.43847C9.98987 2.37087 9.76966 2.44766 9.56142 2.46364C7.97675 2.58524 6.39658 2.78096 4.82345 3.00476C4.00211 3.12161 3.95844 3.13604 3.25357 3.2533C3.15768 3.26925 2.80244 3.3904 3.00189 3.19982C3.91792 2.32449 4.9691 1.57807 6.09761 1.00702C6.36062 0.873926 5.53563 1.18915 5.26705 1.31061C4.09883 1.8389 2.97437 2.46758 1.93537 3.22027C1.65996 3.41979 1.53731 3.52088 1.31403 3.72364C1.28105 3.75358 1.22437 3.77819 1.22437 3.82274C1.22437 3.87215 1.31676 3.85826 1.36436 3.8715C1.72915 3.97297 1.88717 4.01464 2.28616 4.14206C2.93879 4.35049 3.55083 4.61316 4.15964 4.91757" stroke="#1054F3" stroke-width="1.00445" stroke-linecap="round"/>
</svg>
