<svg width="66" height="67" viewBox="0 0 66 67" fill="none" xmlns="http://www.w3.org/2000/svg">
<circle cx="33" cy="33.5" r="33" fill="#1054F3"/>
<path d="M17.9591 37.168C13.211 37.168 10.2677 34.2461 10.2677 29.7559C10.2677 25.2656 13.211 22.3438 17.9591 22.3438C22.4278 22.3438 25.3067 24.5781 25.3067 28.2305V28.5527H21.7189V28.2305C21.7189 26.3398 20.6446 25.4375 18.0235 25.4375C14.8653 25.4375 13.6837 26.5547 13.6837 29.7559C13.6837 32.957 14.8653 34.0742 18.0235 34.0742C20.6446 34.0742 21.7189 33.1719 21.7189 31.2813V30.959H25.3067V31.2813C25.3067 34.9336 22.4493 37.168 17.9591 37.168ZM34.2013 37.168C29.84 37.168 27.3907 35.4492 27.3907 32.0977V31.9688H30.6134V32.3555C30.6134 33.6875 31.2794 34.2246 34.2013 34.2246C36.7794 34.2246 37.381 33.8379 37.381 32.8711C37.381 31.9902 36.8868 31.668 35.4044 31.4102L31.3653 30.8301C28.7872 30.4219 27.2618 29.1328 27.2618 26.791C27.2618 24.6211 29.0235 22.3438 33.8575 22.3438C38.2833 22.3438 40.3458 24.3848 40.3458 27.4141V27.543H37.1017V27.2422C37.1017 25.8672 36.3927 25.2871 33.5353 25.2871C31.215 25.2871 30.506 25.7383 30.506 26.6621C30.506 27.5 30.9786 27.8008 32.1817 28.0156L36.2208 28.6602C39.4435 29.1758 40.6036 30.7441 40.6036 32.7207C40.6036 35.0625 38.7775 37.168 34.2013 37.168ZM49.4141 37.168C45.0527 37.168 42.6035 35.4492 42.6035 32.0977V31.9688H45.8262V32.3555C45.8262 33.6875 46.4922 34.2246 49.4141 34.2246C51.9922 34.2246 52.5938 33.8379 52.5938 32.8711C52.5938 31.9902 52.0996 31.668 50.6172 31.4102L46.5781 30.8301C44 30.4219 42.4746 29.1328 42.4746 26.791C42.4746 24.6211 44.2363 22.3438 49.0703 22.3438C53.4961 22.3438 55.5586 24.3848 55.5586 27.4141V27.543H52.3145V27.2422C52.3145 25.8672 51.6055 25.2871 48.748 25.2871C46.4277 25.2871 45.7188 25.7383 45.7188 26.6621C45.7188 27.5 46.1914 27.8008 47.3945 28.0156L51.4336 28.6602C54.6562 29.1758 55.8164 30.7441 55.8164 32.7207C55.8164 35.0625 53.9902 37.168 49.4141 37.168ZM13.1477 45.9531H11.4719V38.468H13.1477V45.9531ZM17.9238 46.0648C15.6559 46.0648 14.3823 45.1711 14.3823 43.4283V43.3613H16.0581V43.5623C16.0581 44.255 16.4044 44.5343 17.9238 44.5343C19.2644 44.5343 19.5773 44.3332 19.5773 43.8305C19.5773 43.3724 19.3203 43.2048 18.5494 43.0708L16.4491 42.7691C15.1085 42.5569 14.3153 41.8866 14.3153 40.6688C14.3153 39.5405 15.2314 38.3563 17.7451 38.3563C20.0465 38.3563 21.119 39.4176 21.119 40.9928V41.0598H19.432V40.9034C19.432 40.1884 19.0633 39.8868 17.5775 39.8868C16.3709 39.8868 16.0023 40.1214 16.0023 40.6018C16.0023 41.0375 16.248 41.1939 16.8737 41.3056L18.974 41.6408C20.6498 41.9089 21.253 42.7245 21.253 43.7523C21.253 44.97 20.3034 46.0648 17.9238 46.0648ZM28.7727 45.9531H22.4382V38.468H28.7727V39.9762H24.114V41.4397H28.6051V42.9367H24.114V44.4449H28.7727V45.9531ZM31.4066 45.9531H29.5297L32.8031 38.468H35.1939L38.4896 45.9531H36.568L35.8642 44.2997H32.1216L31.4066 45.9531ZM33.4734 41.1604L32.7696 42.7915H35.2162L34.5124 41.1604L34.0543 39.9985H33.9315L33.4734 41.1604ZM42.7795 46.0648C40.5116 46.0648 39.238 45.1711 39.238 43.4283V43.3613H40.9138V43.5623C40.9138 44.255 41.2601 44.5343 42.7795 44.5343C44.1201 44.5343 44.4329 44.3332 44.4329 43.8305C44.4329 43.3724 44.176 43.2048 43.4051 43.0708L41.3048 42.7691C39.9642 42.5569 39.171 41.8866 39.171 40.6688C39.171 39.5405 40.0871 38.3563 42.6007 38.3563C44.9021 38.3563 45.9746 39.4176 45.9746 40.9928V41.0598H44.2877V40.9034C44.2877 40.1884 43.919 39.8868 42.4332 39.8868C41.2266 39.8868 40.8579 40.1214 40.8579 40.6018C40.8579 41.0375 41.1037 41.1939 41.7293 41.3056L43.8296 41.6408C45.5054 41.9089 46.1087 42.7245 46.1087 43.7523C46.1087 44.97 45.1591 46.0648 42.7795 46.0648ZM51.7291 45.9531H50.0422V43.473L46.7241 38.468H48.7909L50.2209 40.6577L50.8465 41.6631H50.9694L51.5951 40.6577L53.0251 38.468H55.103L51.7291 43.4841V45.9531Z" fill="white"/>
</svg>
