<svg width="32" height="32" viewBox="0 0 32 32" fill="none" xmlns="http://www.w3.org/2000/svg">
<path d="M4 27.4V4.6C4 4.26863 4.26863 4 4.6 4H27.4C27.7314 4 28 4.26863 28 4.6V27.4C28 27.7314 27.7314 28 27.4 28H4.6C4.26863 28 4 27.7314 4 27.4Z" stroke="white" stroke-width="2"/>
<path d="M20 11.3332C19.0867 10.4199 17.4782 9.78466 16 9.74488M12 19.9999C12.8593 21.1457 14.457 21.7991 16 21.8546M16 9.74488C14.2412 9.69755 12.6667 10.4932 12.6667 12.6666C12.6667 16.6666 20 14.6666 20 18.6666C20 20.948 18.0482 21.9282 16 21.8546M16 9.74488V7.33325M16 21.8546V24.6666" stroke="white" stroke-width="2" stroke-linecap="round" stroke-linejoin="round"/>
</svg>
