<svg width="20" height="20" viewBox="0 0 20 20" fill="none" xmlns="http://www.w3.org/2000/svg">
<path d="M6.90845 5.24175C6.55845 5.24175 6.28345 4.95842 6.28345 4.61675V2.29175C6.28345 1.95008 6.55845 1.66675 6.90845 1.66675C7.25845 1.66675 7.53345 1.95008 7.53345 2.29175V4.60842C7.53345 4.95842 7.25845 5.24175 6.90845 5.24175Z" fill="white"/>
<path d="M13.0916 5.24175C12.7416 5.24175 12.4666 4.95842 12.4666 4.61675V2.29175C12.4666 1.94175 12.7499 1.66675 13.0916 1.66675C13.4416 1.66675 13.7166 1.95008 13.7166 2.29175V4.60842C13.7166 4.95842 13.4416 5.24175 13.0916 5.24175Z" fill="white"/>
<path d="M16.3083 3.75008C15.7583 3.34175 14.9666 3.73341 14.9666 4.42508V4.50841C14.9666 5.48341 14.2666 6.38342 13.2916 6.48342C12.1666 6.60008 11.2166 5.71675 11.2166 4.61675V3.75008C11.2166 3.29175 10.8416 2.91675 10.3833 2.91675H9.61659C9.15825 2.91675 8.78325 3.29175 8.78325 3.75008V4.61675C8.78325 5.27508 8.44159 5.85841 7.92492 6.18341C7.84992 6.23341 7.76659 6.27508 7.68325 6.31675C7.60825 6.35841 7.52492 6.39175 7.43325 6.41675C7.33325 6.45008 7.22492 6.47508 7.10825 6.48342C6.97492 6.50008 6.84159 6.50008 6.70825 6.48342C6.59159 6.47508 6.48325 6.45008 6.38325 6.41675C6.29992 6.39175 6.21659 6.35841 6.13325 6.31675C6.04992 6.27508 5.96659 6.23341 5.89159 6.18341C5.36659 5.81675 5.03325 5.18341 5.03325 4.50841V4.42508C5.03325 3.78341 4.34992 3.40008 3.80825 3.67508C3.79992 3.68341 3.79159 3.68341 3.78325 3.69175C3.74992 3.70841 3.72492 3.72508 3.69159 3.75008C3.66659 3.77508 3.63325 3.79175 3.60825 3.81675C3.37492 4.00008 3.16659 4.20841 2.99159 4.43341C2.89992 4.53341 2.82492 4.64175 2.75825 4.75008C2.74992 4.75841 2.74159 4.76675 2.73325 4.78341C2.65825 4.89175 2.59159 5.01675 2.53325 5.13341C2.51659 5.15008 2.50825 5.15841 2.50825 5.17508C2.45825 5.27508 2.40825 5.37508 2.37492 5.48341C2.34992 5.52508 2.34159 5.55841 2.32492 5.60008C2.27492 5.72508 2.24159 5.85008 2.20825 5.97508C2.17492 6.09175 2.14992 6.21675 2.13325 6.34175C2.11659 6.43341 2.10825 6.52508 2.09992 6.62508C2.09159 6.74175 2.08325 6.85841 2.08325 6.97508V14.2751C2.08325 16.5167 3.89992 18.3334 6.14159 18.3334H13.8583C16.0999 18.3334 17.9166 16.5167 17.9166 14.2751V6.97508C17.9166 5.65008 17.2833 4.49175 16.3083 3.75008ZM9.99992 13.5417H8.59159V15.0001C8.59159 15.3417 8.30825 15.6251 7.96659 15.6251C7.61659 15.6251 7.34159 15.3417 7.34159 15.0001V13.5417H5.83325C5.49159 13.5417 5.20825 13.2584 5.20825 12.9167C5.20825 12.5751 5.49159 12.2917 5.83325 12.2917H7.34159V10.8334C7.34159 10.4917 7.61659 10.2084 7.96659 10.2084C8.30825 10.2084 8.59159 10.4917 8.59159 10.8334V12.2917H9.99992C10.3416 12.2917 10.6249 12.5751 10.6249 12.9167C10.6249 13.2584 10.3416 13.5417 9.99992 13.5417Z" fill="white"/>
</svg>
