<svg width="32" height="32" viewBox="0 0 32 32" fill="none" xmlns="http://www.w3.org/2000/svg">
<path d="M29.3333 20.0001V12.0001C29.3333 5.33341 26.6666 2.66675 20 2.66675H12C5.33329 2.66675 2.66663 5.33341 2.66663 12.0001V20.0001C2.66663 26.6667 5.33329 29.3334 12 29.3334H20C26.6666 29.3334 29.3333 26.6667 29.3333 20.0001Z" stroke="white" stroke-width="2" stroke-linecap="round" stroke-linejoin="round"/>
<path d="M3.35999 9.47998H28.64" stroke="white" stroke-width="2" stroke-linecap="round" stroke-linejoin="round"/>
<path d="M11.36 2.81323V9.29323" stroke="white" stroke-width="2" stroke-linecap="round" stroke-linejoin="round"/>
<path d="M20.64 2.81323V8.69323" stroke="white" stroke-width="2" stroke-linecap="round" stroke-linejoin="round"/>
<path d="M13 19.2667V17.6667C13 15.6133 14.4533 14.7733 16.2267 15.8L17.6133 16.6L19 17.4C20.7733 18.4267 20.7733 20.1067 19 21.1333L17.6133 21.9333L16.2267 22.7333C14.4533 23.76 13 22.92 13 20.8667V19.2667V19.2667Z" stroke="white" stroke-width="2" stroke-miterlimit="10" stroke-linecap="round" stroke-linejoin="round"/>
</svg>
